<svg width="36" height="36" viewBox="0 0 36 36" fill="none" xmlns="http://www.w3.org/2000/svg">
<path fill-rule="evenodd" clip-rule="evenodd" d="M17.9999 3.00024C9.71538 3.00024 2.99988 9.71575 2.99988 18.0002C2.99988 26.2847 9.71538 33.0002 17.9999 33.0002C26.2844 33.0002 32.9999 26.2847 32.9999 18.0002C32.9999 9.71575 26.2844 3.00024 17.9999 3.00024ZM19.1249 10.5002C19.1249 10.2019 19.0064 9.91573 18.7954 9.70475C18.5844 9.49377 18.2982 9.37524 17.9999 9.37524C17.7015 9.37524 17.4154 9.49377 17.2044 9.70475C16.9934 9.91573 16.8749 10.2019 16.8749 10.5002V25.5002C16.8749 25.7986 16.9934 26.0848 17.2044 26.2957C17.4154 26.5067 17.7015 26.6252 17.9999 26.6252C18.2982 26.6252 18.5844 26.5067 18.7954 26.2957C19.0064 26.0848 19.1249 25.7986 19.1249 25.5002V10.5002ZM11.6249 13.5002C11.6249 13.2019 11.5064 12.9157 11.2954 12.7048C11.0844 12.4938 10.7982 12.3752 10.4999 12.3752C10.2015 12.3752 9.91536 12.4938 9.70438 12.7048C9.4934 12.9157 9.37488 13.2019 9.37488 13.5002V22.5002C9.37488 22.7986 9.4934 23.0848 9.70438 23.2957C9.91536 23.5067 10.2015 23.6252 10.4999 23.6252C10.7982 23.6252 11.0844 23.5067 11.2954 23.2957C11.5064 23.0848 11.6249 22.7986 11.6249 22.5002V13.5002ZM26.6249 15.0002C26.6249 14.7019 26.5064 14.4157 26.2954 14.2048C26.0844 13.9938 25.7982 13.8752 25.4999 13.8752C25.2015 13.8752 24.9154 13.9938 24.7044 14.2048C24.4934 14.4157 24.3749 14.7019 24.3749 15.0002V21.0002C24.3749 21.2986 24.4934 21.5848 24.7044 21.7957C24.9154 22.0067 25.2015 22.1252 25.4999 22.1252C25.7982 22.1252 26.0844 22.0067 26.2954 21.7957C26.5064 21.5848 26.6249 21.2986 26.6249 21.0002V15.0002Z" fill="url(#paint0_linear_252_13098)"/>
<defs>
<linearGradient id="paint0_linear_252_13098" x1="17.9999" y1="3.00024" x2="-29.2501" y2="60.1877" gradientUnits="userSpaceOnUse">
<stop stop-color="#5561EE"/>
<stop offset="0.583337" stop-color="#9E2FBA" stop-opacity="0"/>
</linearGradient>
</defs>
</svg>
