<svg width="34" height="34" viewBox="0 0 34 34" fill="none" xmlns="http://www.w3.org/2000/svg">
<rect x="0.5" y="0.5" width="33" height="33" rx="16.5" fill="#83D098" fill-opacity="0.1"/>
<path d="M23.9086 10.0937C23.1282 9.31339 22.0697 8.875 20.9661 8.875C19.8624 8.875 18.8039 9.31339 18.0235 10.0937L10.0938 18.0226C9.32981 18.8063 8.90533 19.8594 8.91232 20.9538C8.9193 22.0482 9.3572 23.0958 10.1311 23.8697C10.9051 24.6435 11.9527 25.0813 13.0472 25.0881C14.1416 25.095 15.1946 24.6703 15.9782 23.9062L23.9086 15.9773C24.6876 15.1964 25.125 14.1385 25.125 13.0355C25.125 11.9326 24.6876 10.8746 23.9086 10.0937ZM23.0243 15.0937L19.0594 19.0578L14.943 14.9422L18.9079 10.9773C19.4559 10.442 20.1929 10.1442 20.959 10.1487C21.7251 10.1532 22.4586 10.4595 23.0004 11.0012C23.5421 11.543 23.8484 12.2765 23.8529 13.0426C23.8574 13.8087 23.5596 14.5457 23.0243 15.0937ZM21.8188 13.4328C21.8769 13.4908 21.923 13.5598 21.9545 13.6357C21.9859 13.7115 22.0021 13.7929 22.0021 13.875C22.0021 13.9571 21.9859 14.0385 21.9545 14.1143C21.923 14.1902 21.8769 14.2591 21.8188 14.3172L19.9438 16.1922C19.8857 16.2502 19.8168 16.2962 19.741 16.3276C19.6651 16.359 19.5838 16.3751 19.5017 16.3751C19.4196 16.375 19.3384 16.3588 19.2625 16.3274C19.1867 16.2959 19.1178 16.2499 19.0598 16.1918C19.0018 16.1337 18.9558 16.0648 18.9244 15.9889C18.893 15.9131 18.8769 15.8318 18.8769 15.7497C18.877 15.6676 18.8932 15.5864 18.9246 15.5105C18.9561 15.4347 19.0021 15.3658 19.0602 15.3078L20.9352 13.4328C21.0524 13.3157 21.2113 13.2499 21.377 13.2499C21.5427 13.2499 21.7016 13.3157 21.8188 13.4328Z" fill="#83D098"/>
<rect x="0.5" y="0.5" width="33" height="33" rx="16.5" stroke="url(#paint0_linear_258_13125)"/>
<defs>
<linearGradient id="paint0_linear_258_13125" x1="17" y1="1" x2="17" y2="33" gradientUnits="userSpaceOnUse">
<stop stop-color="#83D098"/>
<stop offset="1" stop-color="#CBB2EC"/>
</linearGradient>
</defs>
</svg>
