<svg width="242" height="162" viewBox="0 0 242 162" fill="none" xmlns="http://www.w3.org/2000/svg">
<rect x="2.5" y="2.5" width="116" height="50" rx="5.5" stroke="#CCCCCC" stroke-width="5"/>
<path d="M9.51217 64.2839C9.01415 64.757 8.19838 64.5987 7.91348 63.9737L2.6449 52.4148C2.34307 51.7526 2.82709 51 3.55483 51L20.9907 51C21.894 51 22.3344 52.1028 21.6795 52.725L9.51217 64.2839Z" fill="#CCCCCC"/>
<path d="M18 28H69" stroke="#CCCCCC" stroke-width="4" stroke-linecap="round"/>
<path d="M18 39H91" stroke="#CCCCCC" stroke-width="4" stroke-linecap="round"/>
<circle cx="19" cy="15" r="6" fill="#535EE9"/>
<rect x="-2.5" y="2.5" width="116" height="50" rx="5.5" transform="matrix(-1 0 0 1 237 65)" stroke="#CCCCCC" stroke-width="5"/>
<path d="M232.488 129.284C232.986 129.757 233.802 129.599 234.087 128.974L239.355 117.415C239.657 116.753 239.173 116 238.445 116H221.009C220.106 116 219.666 117.103 220.321 117.725L232.488 129.284Z" fill="#CCCCCC"/>
<path d="M228 90H155" stroke="#CCCCCC" stroke-width="4" stroke-linecap="round"/>
<path d="M224 102H159" stroke="#CCCCCC" stroke-width="4" stroke-linecap="round"/>
<circle cx="6" cy="6" r="6" transform="matrix(-1 0 0 1 143 73)" fill="#535EE9"/>
<path d="M50.5408 146.341V157.25H48.783L43.6428 149.819H43.5522V157.25H41.576V146.341H43.3445L48.4794 153.777H48.5753V146.341H50.5408ZM56.1778 157.41C55.3788 157.41 54.6863 157.234 54.1004 156.882C53.5145 156.531 53.0599 156.039 52.7368 155.407C52.4172 154.775 52.2574 154.036 52.2574 153.191C52.2574 152.346 52.4172 151.605 52.7368 150.97C53.0599 150.334 53.5145 149.841 54.1004 149.489C54.6863 149.137 55.3788 148.962 56.1778 148.962C56.9768 148.962 57.6693 149.137 58.2552 149.489C58.8412 149.841 59.2939 150.334 59.6135 150.97C59.9367 151.605 60.0983 152.346 60.0983 153.191C60.0983 154.036 59.9367 154.775 59.6135 155.407C59.2939 156.039 58.8412 156.531 58.2552 156.882C57.6693 157.234 56.9768 157.41 56.1778 157.41ZM56.1885 155.865C56.6217 155.865 56.9839 155.746 57.2751 155.508C57.5663 155.267 57.7829 154.944 57.925 154.539C58.0706 154.134 58.1434 153.683 58.1434 153.186C58.1434 152.685 58.0706 152.232 57.925 151.827C57.7829 151.419 57.5663 151.094 57.2751 150.853C56.9839 150.611 56.6217 150.49 56.1885 150.49C55.7446 150.49 55.3753 150.611 55.0805 150.853C54.7893 151.094 54.5709 151.419 54.4253 151.827C54.2833 152.232 54.2123 152.685 54.2123 153.186C54.2123 153.683 54.2833 154.134 54.4253 154.539C54.5709 154.944 54.7893 155.267 55.0805 155.508C55.3753 155.746 55.7446 155.865 56.1885 155.865ZM65.4556 157.25V149.068H67.2987V150.458H67.3945C67.565 149.99 67.8473 149.624 68.2415 149.361C68.6357 149.095 69.1062 148.962 69.6531 148.962C70.207 148.962 70.674 149.097 71.054 149.366C71.4375 149.633 71.7074 149.997 71.8636 150.458H71.9489C72.13 150.004 72.4354 149.642 72.8651 149.372C73.2983 149.098 73.8114 148.962 74.4045 148.962C75.1573 148.962 75.7717 149.2 76.2475 149.675C76.7234 150.151 76.9613 150.846 76.9613 151.758V157.25H75.0277V152.056C75.0277 151.549 74.8928 151.178 74.6229 150.943C74.353 150.705 74.0227 150.586 73.6321 150.586C73.1669 150.586 72.8029 150.732 72.5401 151.023C72.2809 151.311 72.1513 151.685 72.1513 152.147V157.25H70.2603V151.977C70.2603 151.554 70.1325 151.217 69.8768 150.964C69.6246 150.712 69.2944 150.586 68.886 150.586C68.609 150.586 68.3569 150.657 68.1296 150.799C67.9023 150.938 67.7212 151.135 67.5863 151.391C67.4513 151.643 67.3839 151.937 67.3839 152.275V157.25H65.4556ZM82.5397 157.41C81.7194 157.41 81.0109 157.239 80.4143 156.898C79.8213 156.554 79.365 156.067 79.0454 155.439C78.7258 154.807 78.566 154.063 78.566 153.207C78.566 152.365 78.7258 151.627 79.0454 150.991C79.3685 150.352 79.8195 149.855 80.3983 149.5C80.9772 149.141 81.6572 148.962 82.4385 148.962C82.9427 148.962 83.4186 149.043 83.866 149.207C84.317 149.366 84.7148 149.615 85.0592 149.952C85.4072 150.29 85.6807 150.719 85.8795 151.241C86.0784 151.76 86.1778 152.378 86.1778 153.095V153.686H79.4715V152.387H84.3295C84.3259 152.017 84.246 151.689 84.0898 151.401C83.9335 151.11 83.7151 150.881 83.4346 150.714C83.1576 150.547 82.8344 150.464 82.4651 150.464C82.0709 150.464 81.7247 150.56 81.4264 150.751C81.1281 150.94 80.8955 151.188 80.7286 151.497C80.5653 151.803 80.4818 152.138 80.4782 152.504V153.638C80.4782 154.114 80.5653 154.523 80.7393 154.864C80.9133 155.201 81.1565 155.46 81.469 155.641C81.7815 155.819 82.1473 155.908 82.5663 155.908C82.8469 155.908 83.1008 155.869 83.328 155.79C83.5553 155.709 83.7524 155.59 83.9193 155.434C84.0862 155.277 84.2123 155.084 84.2975 154.853L86.0979 155.055C85.9843 155.531 85.7677 155.947 85.4481 156.302C85.132 156.653 84.7272 156.927 84.2336 157.122C83.74 157.314 83.1753 157.41 82.5397 157.41ZM94.2757 151.231L92.5179 151.423C92.4682 151.245 92.3812 151.078 92.2569 150.922C92.1362 150.766 91.9728 150.64 91.7669 150.544C91.5609 150.448 91.3088 150.4 91.0105 150.4C90.6092 150.4 90.2718 150.487 89.9984 150.661C89.7285 150.835 89.5953 151.06 89.5989 151.337C89.5953 151.575 89.6824 151.769 89.8599 151.918C90.041 152.067 90.3393 152.19 90.7548 152.286L92.1504 152.584C92.9245 152.751 93.4998 153.015 93.8762 153.377C94.2562 153.74 94.448 154.214 94.4515 154.8C94.448 155.315 94.2971 155.769 93.9988 156.163C93.704 156.554 93.2939 156.859 92.7683 157.08C92.2427 157.3 91.639 157.41 90.9572 157.41C89.9558 157.41 89.1497 157.2 88.5389 156.781C87.9281 156.359 87.5641 155.771 87.4469 155.018L89.3272 154.837C89.4125 155.206 89.5936 155.485 89.8706 155.673C90.1475 155.862 90.508 155.956 90.9519 155.956C91.41 155.956 91.7775 155.862 92.0545 155.673C92.335 155.485 92.4753 155.252 92.4753 154.975C92.4753 154.741 92.3848 154.548 92.2037 154.395C92.0261 154.242 91.7491 154.125 91.3727 154.043L89.9771 153.75C89.1923 153.587 88.6117 153.312 88.2353 152.925C87.8588 152.534 87.6724 152.04 87.676 151.444C87.6724 150.94 87.8091 150.503 88.0861 150.134C88.3667 149.761 88.7555 149.473 89.2527 149.271C89.7534 149.065 90.3304 148.962 90.9838 148.962C91.9426 148.962 92.6973 149.166 93.2477 149.574C93.8017 149.983 94.1444 150.535 94.2757 151.231ZM102.508 151.231L100.75 151.423C100.701 151.245 100.614 151.078 100.489 150.922C100.369 150.766 100.205 150.64 99.9993 150.544C99.7933 150.448 99.5412 150.4 99.2429 150.4C98.8416 150.4 98.5043 150.487 98.2308 150.661C97.9609 150.835 97.8278 151.06 97.8313 151.337C97.8278 151.575 97.9148 151.769 98.0923 151.918C98.2734 152.067 98.5717 152.19 98.9872 152.286L100.383 152.584C101.157 152.751 101.732 153.015 102.109 153.377C102.489 153.74 102.68 154.214 102.684 154.8C102.68 155.315 102.529 155.769 102.231 156.163C101.936 156.554 101.526 156.859 101.001 157.08C100.475 157.3 99.8714 157.41 99.1896 157.41C98.1882 157.41 97.3821 157.2 96.7713 156.781C96.1605 156.359 95.7965 155.771 95.6793 155.018L97.5597 154.837C97.6449 155.206 97.826 155.485 98.103 155.673C98.38 155.862 98.7404 155.956 99.1843 155.956C99.6424 155.956 100.01 155.862 100.287 155.673C100.567 155.485 100.708 155.252 100.708 154.975C100.708 154.741 100.617 154.548 100.436 154.395C100.259 154.242 99.9815 154.125 99.6051 154.043L98.2095 153.75C97.4247 153.587 96.8441 153.312 96.4677 152.925C96.0913 152.534 95.9048 152.04 95.9084 151.444C95.9048 150.94 96.0415 150.503 96.3185 150.134C96.5991 149.761 96.9879 149.473 97.4851 149.271C97.9858 149.065 98.5629 148.962 99.2163 148.962C100.175 148.962 100.93 149.166 101.48 149.574C102.034 149.983 102.377 150.535 102.508 151.231ZM106.628 157.415C106.11 157.415 105.643 157.323 105.227 157.138C104.816 156.95 104.489 156.673 104.247 156.307C104.009 155.941 103.89 155.49 103.89 154.954C103.89 154.493 103.976 154.111 104.146 153.809C104.317 153.507 104.549 153.266 104.844 153.085C105.139 152.903 105.471 152.767 105.84 152.674C106.213 152.578 106.598 152.509 106.996 152.467C107.475 152.417 107.864 152.373 108.162 152.333C108.461 152.291 108.677 152.227 108.812 152.142C108.951 152.053 109.02 151.916 109.02 151.732V151.7C109.02 151.298 108.901 150.988 108.663 150.767C108.425 150.547 108.083 150.437 107.635 150.437C107.163 150.437 106.788 150.54 106.511 150.746C106.238 150.952 106.053 151.195 105.957 151.476L104.157 151.22C104.299 150.723 104.533 150.308 104.86 149.974C105.187 149.636 105.586 149.384 106.058 149.217C106.531 149.047 107.053 148.962 107.624 148.962C108.019 148.962 108.411 149.008 108.802 149.1C109.192 149.192 109.549 149.345 109.872 149.558C110.195 149.768 110.455 150.054 110.65 150.416C110.849 150.778 110.948 151.231 110.948 151.774V157.25H109.095V156.126H109.031C108.914 156.353 108.748 156.566 108.535 156.765C108.326 156.961 108.061 157.119 107.742 157.239C107.426 157.357 107.055 157.415 106.628 157.415ZM107.129 155.998C107.516 155.998 107.852 155.922 108.136 155.769C108.42 155.613 108.638 155.407 108.791 155.151C108.947 154.896 109.025 154.617 109.025 154.315V153.351C108.965 153.401 108.862 153.447 108.716 153.489C108.574 153.532 108.415 153.569 108.237 153.601C108.059 153.633 107.884 153.662 107.71 153.686C107.536 153.711 107.385 153.733 107.257 153.75C106.969 153.789 106.712 153.853 106.485 153.942C106.257 154.031 106.078 154.155 105.947 154.315C105.815 154.471 105.749 154.674 105.749 154.922C105.749 155.277 105.879 155.545 106.138 155.727C106.398 155.908 106.728 155.998 107.129 155.998ZM116.445 160.489C115.753 160.489 115.158 160.395 114.661 160.206C114.164 160.022 113.764 159.773 113.463 159.461C113.161 159.148 112.951 158.802 112.834 158.422L114.57 158.001C114.649 158.161 114.762 158.319 114.911 158.475C115.061 158.635 115.261 158.766 115.513 158.869C115.769 158.976 116.09 159.029 116.477 159.029C117.024 159.029 117.477 158.896 117.836 158.63C118.194 158.367 118.374 157.934 118.374 157.33V155.78H118.278C118.178 155.979 118.033 156.183 117.841 156.392C117.653 156.602 117.403 156.778 117.09 156.92C116.781 157.062 116.392 157.133 115.923 157.133C115.295 157.133 114.725 156.985 114.214 156.691C113.706 156.392 113.301 155.949 112.999 155.359C112.701 154.766 112.552 154.024 112.552 153.132C112.552 152.234 112.701 151.476 112.999 150.858C113.301 150.237 113.708 149.766 114.219 149.446C114.73 149.123 115.3 148.962 115.929 148.962C116.408 148.962 116.802 149.043 117.111 149.207C117.424 149.366 117.672 149.56 117.857 149.787C118.042 150.011 118.182 150.222 118.278 150.421H118.384V149.068H120.286V157.383C120.286 158.083 120.119 158.662 119.785 159.12C119.452 159.578 118.995 159.92 118.416 160.148C117.838 160.375 117.181 160.489 116.445 160.489ZM116.461 155.62C116.87 155.62 117.218 155.521 117.506 155.322C117.793 155.123 118.012 154.837 118.161 154.464C118.31 154.091 118.384 153.644 118.384 153.122C118.384 152.607 118.31 152.156 118.161 151.769C118.015 151.382 117.798 151.082 117.511 150.869C117.227 150.652 116.877 150.544 116.461 150.544C116.032 150.544 115.673 150.656 115.385 150.879C115.098 151.103 114.881 151.41 114.736 151.801C114.59 152.188 114.517 152.628 114.517 153.122C114.517 153.623 114.59 154.061 114.736 154.438C114.885 154.81 115.103 155.102 115.391 155.311C115.682 155.517 116.039 155.62 116.461 155.62ZM125.884 157.41C125.064 157.41 124.356 157.239 123.759 156.898C123.166 156.554 122.71 156.067 122.39 155.439C122.07 154.807 121.911 154.063 121.911 153.207C121.911 152.365 122.07 151.627 122.39 150.991C122.713 150.352 123.164 149.855 123.743 149.5C124.322 149.141 125.002 148.962 125.783 148.962C126.287 148.962 126.763 149.043 127.211 149.207C127.662 149.366 128.059 149.615 128.404 149.952C128.752 150.29 129.025 150.719 129.224 151.241C129.423 151.76 129.523 152.378 129.523 153.095V153.686H122.816V152.387H127.674C127.671 152.017 127.591 151.689 127.434 151.401C127.278 151.11 127.06 150.881 126.779 150.714C126.502 150.547 126.179 150.464 125.81 150.464C125.416 150.464 125.069 150.56 124.771 150.751C124.473 150.94 124.24 151.188 124.073 151.497C123.91 151.803 123.827 152.138 123.823 152.504V153.638C123.823 154.114 123.91 154.523 124.084 154.864C124.258 155.201 124.501 155.46 124.814 155.641C125.126 155.819 125.492 155.908 125.911 155.908C126.192 155.908 126.445 155.869 126.673 155.79C126.9 155.709 127.097 155.59 127.264 155.434C127.431 155.277 127.557 155.084 127.642 154.853L129.443 155.055C129.329 155.531 129.112 155.947 128.793 156.302C128.477 156.653 128.072 156.927 127.578 157.122C127.085 157.314 126.52 157.41 125.884 157.41ZM137.62 151.231L135.863 151.423C135.813 151.245 135.726 151.078 135.602 150.922C135.481 150.766 135.318 150.64 135.112 150.544C134.906 150.448 134.653 150.4 134.355 150.4C133.954 150.4 133.617 150.487 133.343 150.661C133.073 150.835 132.94 151.06 132.944 151.337C132.94 151.575 133.027 151.769 133.205 151.918C133.386 152.067 133.684 152.19 134.1 152.286L135.495 152.584C136.269 152.751 136.845 153.015 137.221 153.377C137.601 153.74 137.793 154.214 137.796 154.8C137.793 155.315 137.642 155.769 137.343 156.163C137.049 156.554 136.639 156.859 136.113 157.08C135.587 157.3 134.984 157.41 134.302 157.41C133.301 157.41 132.494 157.2 131.884 156.781C131.273 156.359 130.909 155.771 130.792 155.018L132.672 154.837C132.757 155.206 132.938 155.485 133.215 155.673C133.492 155.862 133.853 155.956 134.297 155.956C134.755 155.956 135.122 155.862 135.399 155.673C135.68 155.485 135.82 155.252 135.82 154.975C135.82 154.741 135.729 154.548 135.548 154.395C135.371 154.242 135.094 154.125 134.717 154.043L133.322 153.75C132.537 153.587 131.956 153.312 131.58 152.925C131.204 152.534 131.017 152.04 131.021 151.444C131.017 150.94 131.154 150.503 131.431 150.134C131.711 149.761 132.1 149.473 132.597 149.271C133.098 149.065 133.675 148.962 134.329 148.962C135.287 148.962 136.042 149.166 136.592 149.574C137.146 149.983 137.489 150.535 137.62 151.231ZM145.035 152.456V157.25H143.107V146.341H144.993V150.458H145.089C145.28 149.997 145.577 149.633 145.978 149.366C146.383 149.097 146.898 148.962 147.523 148.962C148.091 148.962 148.586 149.081 149.009 149.319C149.432 149.556 149.758 149.904 149.989 150.363C150.223 150.821 150.341 151.38 150.341 152.04V157.25H148.412V152.339C148.412 151.788 148.27 151.36 147.986 151.055C147.706 150.746 147.312 150.592 146.804 150.592C146.463 150.592 146.157 150.666 145.888 150.815C145.621 150.961 145.412 151.172 145.259 151.449C145.11 151.726 145.035 152.062 145.035 152.456ZM155.928 157.41C155.108 157.41 154.4 157.239 153.803 156.898C153.21 156.554 152.754 156.067 152.434 155.439C152.114 154.807 151.955 154.063 151.955 153.207C151.955 152.365 152.114 151.627 152.434 150.991C152.757 150.352 153.208 149.855 153.787 149.5C154.366 149.141 155.046 148.962 155.827 148.962C156.331 148.962 156.807 149.043 157.255 149.207C157.706 149.366 158.103 149.615 158.448 149.952C158.796 150.29 159.069 150.719 159.268 151.241C159.467 151.76 159.566 152.378 159.566 153.095V153.686H152.86V152.387H157.718C157.715 152.017 157.635 151.689 157.478 151.401C157.322 151.11 157.104 150.881 156.823 150.714C156.546 150.547 156.223 150.464 155.854 150.464C155.46 150.464 155.113 150.56 154.815 150.751C154.517 150.94 154.284 151.188 154.117 151.497C153.954 151.803 153.87 152.138 153.867 152.504V153.638C153.867 154.114 153.954 154.523 154.128 154.864C154.302 155.201 154.545 155.46 154.858 155.641C155.17 155.819 155.536 155.908 155.955 155.908C156.236 155.908 156.489 155.869 156.717 155.79C156.944 155.709 157.141 155.59 157.308 155.434C157.475 155.277 157.601 155.084 157.686 154.853L159.487 155.055C159.373 155.531 159.156 155.947 158.837 156.302C158.521 156.653 158.116 156.927 157.622 157.122C157.129 157.314 156.564 157.41 155.928 157.41ZM161.198 157.25V149.068H163.067V150.432H163.153C163.302 149.96 163.558 149.596 163.92 149.34C164.286 149.081 164.703 148.951 165.172 148.951C165.278 148.951 165.397 148.956 165.528 148.967C165.663 148.974 165.775 148.987 165.864 149.004V150.778C165.782 150.75 165.653 150.725 165.475 150.703C165.301 150.679 165.132 150.666 164.969 150.666C164.618 150.666 164.301 150.743 164.021 150.895C163.744 151.044 163.526 151.252 163.366 151.518C163.206 151.785 163.126 152.092 163.126 152.44V157.25H161.198ZM170.43 157.41C169.61 157.41 168.902 157.239 168.305 156.898C167.712 156.554 167.256 156.067 166.936 155.439C166.616 154.807 166.457 154.063 166.457 153.207C166.457 152.365 166.616 151.627 166.936 150.991C167.259 150.352 167.71 149.855 168.289 149.5C168.868 149.141 169.548 148.962 170.329 148.962C170.833 148.962 171.309 149.043 171.757 149.207C172.208 149.366 172.605 149.615 172.95 149.952C173.298 150.29 173.571 150.719 173.77 151.241C173.969 151.76 174.068 152.378 174.068 153.095V153.686H167.362V152.387H172.22C172.217 152.017 172.137 151.689 171.98 151.401C171.824 151.11 171.606 150.881 171.325 150.714C171.048 150.547 170.725 150.464 170.356 150.464C169.962 150.464 169.615 150.56 169.317 150.751C169.019 150.94 168.786 151.188 168.619 151.497C168.456 151.803 168.372 152.138 168.369 152.504V153.638C168.369 154.114 168.456 154.523 168.63 154.864C168.804 155.201 169.047 155.46 169.36 155.641C169.672 155.819 170.038 155.908 170.457 155.908C170.737 155.908 170.991 155.869 171.219 155.79C171.446 155.709 171.643 155.59 171.81 155.434C171.977 155.277 172.103 155.084 172.188 154.853L173.989 155.055C173.875 155.531 173.658 155.947 173.339 156.302C173.023 156.653 172.618 156.927 172.124 157.122C171.631 157.314 171.066 157.41 170.43 157.41ZM180.619 160.318C180.356 160.318 180.113 160.297 179.889 160.254C179.669 160.215 179.493 160.169 179.362 160.116L179.809 158.614C180.09 158.695 180.34 158.734 180.56 158.731C180.781 158.727 180.974 158.658 181.141 158.523C181.311 158.392 181.455 158.172 181.572 157.863L181.738 157.42L178.771 149.068H180.816L182.702 155.247H182.787L184.678 149.068H186.729L183.453 158.241C183.3 158.674 183.098 159.045 182.846 159.354C182.593 159.667 182.284 159.904 181.919 160.068C181.556 160.235 181.123 160.318 180.619 160.318ZM191.407 157.41C190.587 157.41 189.878 157.239 189.282 156.898C188.688 156.554 188.232 156.067 187.913 155.439C187.593 154.807 187.433 154.063 187.433 153.207C187.433 152.365 187.593 151.627 187.913 150.991C188.236 150.352 188.687 149.855 189.266 149.5C189.844 149.141 190.524 148.962 191.306 148.962C191.81 148.962 192.286 149.043 192.733 149.207C193.184 149.366 193.582 149.615 193.926 149.952C194.274 150.29 194.548 150.719 194.747 151.241C194.946 151.76 195.045 152.378 195.045 153.095V153.686H188.339V152.387H193.197C193.193 152.017 193.113 151.689 192.957 151.401C192.801 151.11 192.582 150.881 192.302 150.714C192.025 150.547 191.702 150.464 191.332 150.464C190.938 150.464 190.592 150.56 190.294 150.751C189.995 150.94 189.763 151.188 189.596 151.497C189.432 151.803 189.349 152.138 189.345 152.504V153.638C189.345 154.114 189.432 154.523 189.606 154.864C189.78 155.201 190.024 155.46 190.336 155.641C190.649 155.819 191.014 155.908 191.434 155.908C191.714 155.908 191.968 155.869 192.195 155.79C192.422 155.709 192.62 155.59 192.786 155.434C192.953 155.277 193.079 155.084 193.165 154.853L194.965 155.055C194.851 155.531 194.635 155.947 194.315 156.302C193.999 156.653 193.594 156.927 193.101 157.122C192.607 157.314 192.043 157.41 191.407 157.41ZM200.762 149.068V150.56H196.058V149.068H200.762ZM197.22 147.108H199.148V154.789C199.148 155.048 199.187 155.247 199.265 155.386C199.347 155.521 199.453 155.613 199.585 155.663C199.716 155.712 199.862 155.737 200.021 155.737C200.142 155.737 200.252 155.728 200.352 155.711C200.455 155.693 200.533 155.677 200.586 155.663L200.911 157.17C200.808 157.206 200.661 157.245 200.469 157.287C200.281 157.33 200.05 157.355 199.776 157.362C199.294 157.376 198.858 157.303 198.471 157.143C198.084 156.98 197.777 156.728 197.55 156.387C197.326 156.046 197.216 155.62 197.22 155.109V147.108Z" fill="#333333"/>
</svg>
