<svg width="34" height="34" viewBox="0 0 34 34" fill="none" xmlns="http://www.w3.org/2000/svg">
<g clip-path="url(#clip0_258_13119)">
<rect x="1" y="1" width="32" height="32" rx="16" fill="#EF8D8A" fill-opacity="0.1"/>
<g clip-path="url(#clip1_258_13119)">
<path d="M22.1044 11.8956C21.6854 11.4766 21.1171 11.2412 20.5245 11.2412C19.9319 11.2412 19.3636 11.4766 18.9446 11.8956L14.2028 16.6374L13.8785 16.6573C13.2514 16.6967 12.6489 16.9163 12.1434 17.2897C11.6379 17.663 11.2509 18.1743 11.0287 18.7621C10.8066 19.35 10.7588 19.9894 10.8911 20.6038C11.0233 21.2181 11.33 21.7813 11.7744 22.2256C12.2188 22.67 12.7819 22.9767 13.3962 23.1089C14.0106 23.2412 14.65 23.1934 15.2379 22.9713C15.8257 22.7491 16.337 22.3621 16.7104 21.8566C17.0837 21.3511 17.3033 20.7487 17.3427 20.1215L17.3627 19.7972L22.1044 15.0555C22.5235 14.6364 22.7589 14.0681 22.7589 13.4755C22.7589 12.8829 22.5235 12.3146 22.1044 11.8956ZM17.7292 10.6802C18.4706 9.93889 19.4761 9.52241 20.5245 9.52241C21.5729 9.52241 22.5784 9.93889 23.3198 10.6802C24.0611 11.4216 24.4776 12.4271 24.4776 13.4755C24.4776 14.524 24.0611 15.5295 23.3198 16.2708L19.0253 20.5653C18.9042 21.4879 18.5273 22.3582 17.9372 23.0776C17.3471 23.7971 16.5674 24.337 15.6864 24.6363C14.8053 24.9356 13.8581 24.9823 12.9519 24.7711C12.0457 24.5599 11.2167 24.0992 10.5588 23.4413C9.90081 22.7833 9.44017 21.9543 9.22897 21.0481C9.01777 20.1419 9.06445 19.1947 9.36373 18.3136C9.663 17.4326 10.2029 16.6529 10.9224 16.0628C11.6418 15.4728 12.5121 15.0958 13.4347 14.9748L17.7292 10.6802ZM18.2153 14.5693C18.3765 14.4082 18.5951 14.3176 18.823 14.3176C19.0509 14.3176 19.2695 14.4082 19.4307 14.5693C19.5919 14.7305 19.6824 14.9491 19.6824 15.177C19.6824 15.4049 19.5919 15.6235 19.4307 15.7847L16.017 19.1983C16.1809 19.6395 16.189 20.1234 16.0399 20.5698C15.8908 21.0162 15.5935 21.3981 15.1975 21.6523C14.8014 21.9064 14.3303 22.0175 13.8624 21.967C13.3945 21.9166 12.958 21.7076 12.6252 21.3748C12.2924 21.0421 12.0835 20.6055 12.033 20.1376C11.9825 19.6697 12.0936 19.1986 12.3477 18.8026C12.6019 18.4065 12.9839 18.1092 13.4302 17.9602C13.8766 17.8111 14.3605 17.8191 14.8017 17.983L18.2153 14.5693Z" fill="#EF8D8A"/>
</g>
</g>
<rect x="0.5" y="0.5" width="33" height="33" rx="16.5" stroke="url(#paint0_linear_258_13119)"/>
<defs>
<linearGradient id="paint0_linear_258_13119" x1="17" y1="1" x2="17" y2="33" gradientUnits="userSpaceOnUse">
<stop stop-color="#EF8D8A"/>
<stop offset="1" stop-color="#CBB2EC"/>
</linearGradient>
<clipPath id="clip0_258_13119">
<rect x="1" y="1" width="32" height="32" rx="16" fill="white"/>
</clipPath>
<clipPath id="clip1_258_13119">
<rect width="22" height="22" fill="white" transform="translate(17 1.4436) rotate(45)"/>
</clipPath>
</defs>
</svg>
